<svg xmlns="http://www.w3.org/2000/svg" viewBox="0 0 64 64"><rect width="64" height="64" rx="10" fill="#FFFFFF"/><g transform="translate(6,22) scale(0.3)" fill="#4ED869" fill-rule="nonzero"><path d="M54.726 15.176H31.72c-9.558 0-14.887 6.682-14.887 17.001 0 10.658 5.583 17.678 16.156 17.678 5.329 0 10.489-2.199 12.941-7.02H32.48V31.078h28.928v31.55H48.382V55.86C45 61.444 37.303 63.81 29.52 63.81 12.688 63.812 0 51.04 0 32.262 0 13.57 13.787.712 31.381.712h30.112l-6.767 14.465ZM165.532 15.176 172.129.627h-50.243l-6.682 14.55h20.3v47.451h16.325V15.176z"/><path d="M110.129 15.176 116.811.627H66.399l-6.682 14.55h20.385v47.451h16.324V15.176z"/></g></svg>
