<svg viewBox="0 0 1394.99 132.23" xmlns="http://www.w3.org/2000/svg" xmlns:xlink="http://www.w3.org/1999/xlink" id="Layer_2" overflow="hidden"><defs/><g id="Layer_1-2"><path d="M102.2 27.19 59.25 27.19C41.42 27.19 31.52 39.62 31.52 58.88 31.52 78.14 41.96 91.83 61.59 91.83 71.49 91.83 81.22 87.69 85.72 78.68L60.69 78.68 60.69 56.71 114.62 56.71 114.62 115.6 90.36 115.6 90.36 102.99C84.06 113.43 69.69 117.76 55.1 117.76 23.77 117.77 0 94 0 58.89 0 23.78 25.75 0 58.53 0L114.69 0 102.2 27.19Z" stroke="none" stroke-width="0" stroke-linecap="butt" stroke-linejoin="miter" stroke-miterlimit="4" fill="#4ED869" fill-opacity="1"/><path d="M308.97 27.19 321.26 0 227.49 0 215 27.19 253.01 27.19 253.01 115.61 283.45 115.61 283.45 27.19 308.97 27.19Z" stroke="none" stroke-width="0" stroke-linecap="butt" stroke-linejoin="miter" stroke-miterlimit="4" fill="#4ED869" fill-opacity="1"/><path d="M205.56 27.19 218.05 0 124.08 0 111.59 27.19 149.61 27.19 149.61 115.61 180.04 115.61 180.04 27.19 205.56 27.19Z" stroke="none" stroke-width="0" stroke-linecap="butt" stroke-linejoin="miter" stroke-miterlimit="4" fill="#4ED869" fill-opacity="1"/><path d="M357.4 116.59C349.62 116.59 343.25 113.98 338.3 108.77 333.34 103.56 330.87 96.74 330.87 88.33 330.87 79.92 333.41 73.25 338.48 67.98 343.55 62.71 349.89 60.07 357.49 60.07 365.09 60.07 371.09 62.06 375.47 66.03 379.85 70.01 382.27 75.51 382.73 82.54L375.56 82.97C375.27 77.9 373.56 73.88 370.42 70.91 367.28 67.94 363 66.46 357.59 66.46 352.18 66.46 347.36 68.45 343.85 72.42 340.33 76.4 338.58 81.73 338.58 88.41 338.58 95.09 340.38 100.41 343.98 104.36 347.58 108.31 352.35 110.28 358.28 110.28 363.29 110.28 367.38 108.84 370.55 105.96 373.72 103.08 375.53 99.28 375.99 94.55L359.4 94.55 359.4 88.67 382.82 88.67 382.82 115.55 375.99 115.55 375.99 105.87C374.84 109.21 372.55 111.83 369.12 113.74 365.69 115.64 361.79 116.59 357.41 116.59Z" stroke="none" stroke-width="0" stroke-linecap="butt" stroke-linejoin="miter" stroke-miterlimit="4" fill="#FFFFFF" fill-opacity="1"/><path d="M417.9 78.47 417.21 84.95C415.31 83.91 413.35 83.39 411.33 83.39 408.56 83.39 406.29 84.53 404.5 86.8 402.71 89.08 401.82 92 401.82 95.57L401.82 115.54 394.65 115.54 394.65 77.77 401.82 77.77 401.82 85.46C402.57 83.1 403.91 81.05 405.84 79.32 407.77 77.59 410 76.73 412.54 76.73 414.79 76.73 416.57 77.31 417.9 78.46Z" stroke="none" stroke-width="0" stroke-linecap="butt" stroke-linejoin="miter" stroke-miterlimit="4" fill="#FFFFFF" fill-opacity="1"/><path d="M452.99 102.15 458.95 102.84C457.97 107.16 455.95 110.53 452.9 112.95 449.84 115.37 445.99 116.58 441.32 116.58 435.62 116.58 430.95 114.81 427.32 111.26 423.69 107.72 421.87 103.04 421.87 97.22 421.87 91.4 423.68 86.39 427.32 82.53 430.95 78.67 435.5 76.74 440.98 76.74 446.74 76.74 451.21 78.53 454.38 82.1 457.55 85.67 459.13 90.17 459.13 95.58L459.13 98.43 429.05 98.43C429.22 102.06 430.48 105.06 432.81 107.42 435.14 109.78 438.01 110.96 441.41 110.96 447.58 110.96 451.44 108.02 452.99 102.14ZM429.22 93.77 451.78 93.77C451.66 90.49 450.68 87.73 448.84 85.52 447 83.3 444.37 82.19 440.97 82.19 437.57 82.19 435.02 83.3 432.98 85.52 430.93 87.74 429.68 90.49 429.22 93.77Z" stroke="none" stroke-width="0" stroke-linecap="butt" stroke-linejoin="miter" stroke-miterlimit="4" fill="#FFFFFF" fill-opacity="1"/><path d="M499.14 91.18 499.14 108.12C499.14 110.08 500.12 111.06 502.08 111.06 503.29 111.06 504.38 110.77 505.36 110.2L505.36 114.09C503.86 115.59 501.93 116.34 499.57 116.34 497.61 116.34 496 115.66 494.73 114.31 493.46 112.96 492.71 111.15 492.48 108.91 491.44 111.16 489.67 113 487.16 114.44 484.65 115.88 481.9 116.6 478.91 116.6 475.22 116.6 472.28 115.66 470.09 113.79 467.9 111.92 466.81 109.37 466.81 106.14 466.81 102.91 468.09 100.22 470.66 98.4 473.22 96.58 477.01 95.19 482.03 94.21L492.23 92.14 492.23 90.67C492.23 88.08 491.5 86.03 490.03 84.53 488.56 83.03 486.53 82.28 483.94 82.28 478.87 82.28 475.7 84.82 474.43 89.89L468.03 89.03C468.78 85.34 470.55 82.37 473.35 80.13 476.14 77.88 479.7 76.76 484.02 76.76 488.86 76.76 492.59 77.99 495.21 80.43 497.83 82.88 499.14 86.47 499.14 91.19ZM492.23 98.7 492.23 96.88 483.76 98.7C480.3 99.45 477.81 100.28 476.28 101.21 474.75 102.13 473.99 103.63 473.99 105.7 473.99 107.37 474.55 108.73 475.68 109.76 476.81 110.79 478.4 111.32 480.48 111.32 483.88 111.32 486.69 110.15 488.91 107.82 491.13 105.49 492.24 102.45 492.24 98.7Z" stroke="none" stroke-width="0" stroke-linecap="butt" stroke-linejoin="miter" stroke-miterlimit="4" fill="#FFFFFF" fill-opacity="1"/><path d="M514.01 106.74 514.01 82.97 508.31 82.97 508.31 79.08 510.73 78.65C512.4 78.3 513.57 77.7 514.23 76.84 514.89 75.98 515.45 74.56 515.92 72.6L517.04 67.33 521.1 67.33 521.1 77.79 531.73 77.79 531.73 82.98 521.1 82.98 521.1 105.88C521.1 109.17 522.66 110.81 525.77 110.81 527.84 110.81 530.21 110.06 532.86 108.56L532.86 113.4C530.04 115.53 526.81 116.6 523.18 116.6 517.07 116.6 514.02 113.32 514.02 106.75Z" stroke="none" stroke-width="0" stroke-linecap="butt" stroke-linejoin="miter" stroke-miterlimit="4" fill="#FFFFFF" fill-opacity="1"/><path d="M569.67 102.15 575.63 102.84C574.65 107.16 572.63 110.53 569.58 112.95 566.52 115.37 562.67 116.58 558 116.58 552.3 116.58 547.63 114.81 544 111.26 540.37 107.72 538.55 103.04 538.55 97.22 538.55 91.4 540.36 86.39 544 82.53 547.63 78.67 552.18 76.74 557.66 76.74 563.42 76.74 567.89 78.53 571.06 82.1 574.23 85.67 575.81 90.17 575.81 95.58L575.81 98.43 545.73 98.43C545.9 102.06 547.16 105.06 549.49 107.42 551.82 109.78 554.69 110.96 558.09 110.96 564.26 110.96 568.12 108.02 569.67 102.14ZM545.9 93.77 568.46 93.77C568.34 90.49 567.36 87.73 565.52 85.52 563.68 83.3 561.05 82.19 557.65 82.19 554.25 82.19 551.7 83.3 549.66 85.52 547.61 87.74 546.36 90.49 545.9 93.77Z" stroke="none" stroke-width="0" stroke-linecap="butt" stroke-linejoin="miter" stroke-miterlimit="4" fill="#FFFFFF" fill-opacity="1"/><path d="M608.65 78.47 607.96 84.95C606.06 83.91 604.1 83.39 602.08 83.39 599.31 83.39 597.04 84.53 595.25 86.8 593.46 89.08 592.57 92 592.57 95.57L592.57 115.54 585.4 115.54 585.4 77.77 592.57 77.77 592.57 85.46C593.32 83.1 594.66 81.05 596.59 79.32 598.52 77.59 600.75 76.73 603.29 76.73 605.54 76.73 607.32 77.31 608.65 78.46Z" stroke="none" stroke-width="0" stroke-linecap="butt" stroke-linejoin="miter" stroke-miterlimit="4" fill="#FFFFFF" fill-opacity="1"/><path d="M658 115.55 650.57 115.55 650.57 67.32 630.78 67.32 630.78 61.1 678.14 61.1 678.14 67.32 658 67.32 658 115.55Z" stroke="none" stroke-width="0" stroke-linecap="butt" stroke-linejoin="miter" stroke-miterlimit="4" fill="#FFFFFF" fill-opacity="1"/><path d="M708.13 102.15 714.09 102.84C713.11 107.16 711.09 110.53 708.04 112.95 704.99 115.37 701.13 116.58 696.46 116.58 690.76 116.58 686.09 114.81 682.46 111.26 678.83 107.72 677.01 103.04 677.01 97.22 677.01 91.4 678.82 86.39 682.46 82.53 686.09 78.67 690.64 76.74 696.12 76.74 701.88 76.74 706.35 78.53 709.52 82.1 712.69 85.67 714.27 90.17 714.27 95.58L714.27 98.43 684.19 98.43C684.36 102.06 685.62 105.06 687.95 107.42 690.28 109.78 693.15 110.96 696.55 110.96 702.72 110.96 706.58 108.02 708.13 102.14ZM684.36 93.77 706.92 93.77C706.8 90.49 705.82 87.73 703.98 85.52 702.14 83.3 699.51 82.19 696.11 82.19 692.71 82.19 690.16 83.3 688.12 85.52 686.07 87.74 684.82 90.49 684.36 93.77Z" stroke="none" stroke-width="0" stroke-linecap="butt" stroke-linejoin="miter" stroke-miterlimit="4" fill="#FFFFFF" fill-opacity="1"/><path d="M727.06 111.14C723.49 107.51 721.7 102.7 721.7 96.71 721.7 90.72 723.5 85.89 727.1 82.23 730.7 78.57 735.35 76.74 741.06 76.74 746.36 76.74 750.55 78.3 753.64 81.41 756.72 84.52 758.47 88.47 758.87 93.25L752.56 93.68C752.27 90.28 751.12 87.57 749.1 85.56 747.08 83.54 744.38 82.53 740.98 82.53 737.41 82.53 734.53 83.81 732.34 86.38 730.15 88.94 729.06 92.39 729.06 96.71 729.06 101.03 730.15 104.48 732.34 107.04 734.53 109.6 737.41 110.89 740.98 110.89 744.55 110.89 747.09 109.85 749.1 107.78 751.12 105.7 752.27 102.94 752.56 99.48L758.87 100.09C758.47 104.93 756.72 108.89 753.64 111.97 750.56 115.05 746.36 116.59 741.06 116.59 735.3 116.59 730.63 114.77 727.06 111.14Z" stroke="none" stroke-width="0" stroke-linecap="butt" stroke-linejoin="miter" stroke-miterlimit="4" fill="#FFFFFF" fill-opacity="1"/><path d="M775.55 93.86 775.55 115.55 768.38 115.55 768.38 61.1 775.55 61.1 775.55 84.52C776.47 82.22 778.09 80.34 780.39 78.9 782.69 77.46 785.26 76.74 788.08 76.74 792.8 76.74 796.29 78.14 798.54 80.93 800.79 83.72 801.91 87.46 801.91 92.12L801.91 115.54 794.74 115.54 794.74 92.72C794.74 89.49 793.98 86.97 792.45 85.16 790.92 83.34 788.69 82.44 785.75 82.44 782.81 82.44 780.45 83.49 778.49 85.59 776.53 87.69 775.55 90.45 775.55 93.84Z" stroke="none" stroke-width="0" stroke-linecap="butt" stroke-linejoin="miter" stroke-miterlimit="4" fill="#FFFFFF" fill-opacity="1"/><path d="M820.58 93.86 820.58 115.55 813.41 115.55 813.41 77.78 820.58 77.78 820.58 84.52C821.5 82.22 823.12 80.34 825.42 78.9 827.72 77.46 830.29 76.74 833.11 76.74 837.83 76.74 841.32 78.14 843.57 80.93 845.82 83.72 846.94 87.46 846.94 92.12L846.94 115.54 839.77 115.54 839.77 92.72C839.77 89.49 839.01 86.97 837.48 85.16 835.95 83.34 833.72 82.44 830.78 82.44 827.84 82.44 825.48 83.49 823.52 85.59 821.56 87.69 820.58 90.45 820.58 93.84Z" stroke="none" stroke-width="0" stroke-linecap="butt" stroke-linejoin="miter" stroke-miterlimit="4" fill="#FFFFFF" fill-opacity="1"/><path d="M889.07 82.36C892.73 86.11 894.56 90.89 894.56 96.71 894.56 102.53 892.73 107.3 889.07 111.01 885.41 114.73 880.79 116.58 875.2 116.58 869.61 116.58 865.01 114.72 861.41 111.01 857.81 107.29 856.01 102.53 856.01 96.71 856.01 90.89 857.82 86.04 861.46 82.32 865.09 78.6 869.67 76.74 875.2 76.74 880.73 76.74 885.41 78.61 889.07 82.36ZM866.47 86.29C864.4 88.91 863.36 92.38 863.36 96.71 863.36 101.04 864.4 104.5 866.47 107.13 868.54 109.75 871.45 111.06 875.2 111.06 878.95 111.06 881.88 109.73 884.02 107.08 886.16 104.43 887.22 100.97 887.22 96.71 887.22 92.45 886.17 88.92 884.07 86.29 881.97 83.67 879.01 82.36 875.21 82.36 871.41 82.36 868.55 83.67 866.48 86.29Z" stroke="none" stroke-width="0" stroke-linecap="butt" stroke-linejoin="miter" stroke-miterlimit="4" fill="#FFFFFF" fill-opacity="1"/><path d="M904.16 61.1 911.33 61.1 911.33 115.55 904.16 115.55 904.16 61.1Z" stroke="none" stroke-width="0" stroke-linecap="butt" stroke-linejoin="miter" stroke-miterlimit="4" fill="#FFFFFF" fill-opacity="1"/><path d="M953.9 82.36C957.56 86.11 959.39 90.89 959.39 96.71 959.39 102.53 957.56 107.3 953.9 111.01 950.24 114.73 945.62 116.58 940.03 116.58 934.44 116.58 929.85 114.72 926.24 111.01 922.64 107.29 920.84 102.53 920.84 96.71 920.84 90.89 922.66 86.04 926.29 82.32 929.92 78.6 934.5 76.74 940.03 76.74 945.56 76.74 950.24 78.61 953.9 82.36ZM931.3 86.29C929.23 88.91 928.19 92.38 928.19 96.71 928.19 101.04 929.23 104.5 931.3 107.13 933.38 109.75 936.28 111.06 940.03 111.06 943.78 111.06 946.71 109.73 948.85 107.08 950.98 104.43 952.05 100.97 952.05 96.71 952.05 92.45 951 88.92 948.89 86.29 946.79 83.67 943.83 82.36 940.03 82.36 936.23 82.36 933.38 83.67 931.3 86.29Z" stroke="none" stroke-width="0" stroke-linecap="butt" stroke-linejoin="miter" stroke-miterlimit="4" fill="#FFFFFF" fill-opacity="1"/><path d="M1000.09 89.62C1000.09 93.48 998.61 96.58 995.64 98.91 992.67 101.24 988.83 102.41 984.1 102.41 980.87 102.41 978.11 101.89 975.8 100.85 974.13 101.83 973.29 103.07 973.29 104.57 973.29 106.76 974.82 107.85 977.87 107.85L992.65 107.85C996.63 107.85 999.71 108.79 1001.9 110.66 1004.09 112.53 1005.18 115 1005.18 118.05 1005.18 121.1 1004.11 123.55 1001.98 125.57 999.85 127.59 997.21 129.01 994.07 129.85 990.93 130.68 987.37 131.1 983.4 131.1 977.98 131.1 973.52 130.24 970 128.51 966.48 126.78 964.73 124.25 964.73 120.9 964.73 118.77 965.42 117.02 966.8 115.67 968.18 114.32 970.08 113.41 972.5 112.95 969.16 111.86 967.49 109.7 967.49 106.47 967.49 103.42 969.39 101.05 973.19 99.38 969.91 97.02 968.26 93.76 968.26 89.61 968.26 85.69 969.73 82.57 972.67 80.23 975.61 77.9 979.41 76.73 984.08 76.73 988.75 76.73 992.87 78.03 995.92 80.62 998.17 77.16 1001.37 75.43 1005.51 75.43L1005.51 81.65C1002.74 81.65 1000.32 82.17 998.25 83.21 999.46 85.17 1000.06 87.3 1000.06 89.61ZM971.57 119.52C971.57 124.07 975.52 126.35 983.41 126.35 993.32 126.35 998.28 123.84 998.28 118.83 998.28 115.72 995.86 114.16 991.02 114.16L978.83 114.16C973.99 114.16 971.57 115.95 971.57 119.52ZM992.83 89.7C992.83 87.05 992.07 85 990.54 83.56 989.01 82.12 986.9 81.4 984.19 81.4 981.48 81.4 979.45 82.12 977.92 83.56 976.39 85 975.63 87.05 975.63 89.7 975.63 92.35 976.39 94.3 977.92 95.71 979.45 97.12 981.54 97.83 984.19 97.83 986.84 97.83 989.02 97.12 990.54 95.71 992.07 94.3 992.83 92.3 992.83 89.7Z" stroke="none" stroke-width="0" stroke-linecap="butt" stroke-linejoin="miter" stroke-miterlimit="4" fill="#FFFFFF" fill-opacity="1"/><path d="M1025.07 130.07 1018.07 130.07 1024.21 115.46 1008.31 77.78 1015.83 77.78 1027.84 106.82 1028.19 106.82 1039.77 77.78 1046.86 77.78 1025.08 130.07Z" stroke="none" stroke-width="0" stroke-linecap="butt" stroke-linejoin="miter" stroke-miterlimit="4" fill="#FFFFFF" fill-opacity="1"/><path d="M1096.38 115.55 1088.95 115.55 1088.95 67.32 1069.16 67.32 1069.16 61.1 1116.52 61.1 1116.52 67.32 1096.38 67.32 1096.38 115.55Z" stroke="none" stroke-width="0" stroke-linecap="butt" stroke-linejoin="miter" stroke-miterlimit="4" fill="#FFFFFF" fill-opacity="1"/><path d="M1148.45 82.36C1152.11 86.11 1153.94 90.89 1153.94 96.71 1153.94 102.53 1152.11 107.3 1148.45 111.01 1144.79 114.73 1140.17 116.58 1134.58 116.58 1128.99 116.58 1124.4 114.72 1120.79 111.01 1117.19 107.29 1115.39 102.53 1115.39 96.71 1115.39 90.89 1117.21 86.04 1120.84 82.32 1124.47 78.6 1129.05 76.74 1134.58 76.74 1140.11 76.74 1144.79 78.61 1148.45 82.36ZM1125.85 86.29C1123.78 88.91 1122.74 92.38 1122.74 96.71 1122.74 101.04 1123.78 104.5 1125.85 107.13 1127.93 109.75 1130.83 111.06 1134.58 111.06 1138.33 111.06 1141.26 109.73 1143.4 107.08 1145.53 104.43 1146.6 100.97 1146.6 96.71 1146.6 92.45 1145.55 88.92 1143.44 86.29 1141.34 83.67 1138.38 82.36 1134.58 82.36 1130.78 82.36 1127.93 83.67 1125.85 86.29Z" stroke="none" stroke-width="0" stroke-linecap="butt" stroke-linejoin="miter" stroke-miterlimit="4" fill="#FFFFFF" fill-opacity="1"/><path d="M1194.65 89.62C1194.65 93.48 1193.17 96.58 1190.2 98.91 1187.23 101.24 1183.39 102.41 1178.66 102.41 1175.43 102.41 1172.67 101.89 1170.36 100.85 1168.69 101.83 1167.85 103.07 1167.85 104.57 1167.85 106.76 1169.38 107.85 1172.43 107.85L1187.21 107.85C1191.19 107.85 1194.27 108.79 1196.46 110.66 1198.65 112.53 1199.74 115 1199.74 118.05 1199.74 121.1 1198.67 123.55 1196.54 125.57 1194.41 127.59 1191.77 129.01 1188.63 129.85 1185.49 130.68 1181.93 131.1 1177.96 131.1 1172.54 131.1 1168.08 130.24 1164.56 128.51 1161.04 126.78 1159.29 124.25 1159.29 120.9 1159.29 118.77 1159.98 117.02 1161.36 115.67 1162.74 114.32 1164.64 113.41 1167.06 112.95 1163.72 111.86 1162.05 109.7 1162.05 106.47 1162.05 103.42 1163.95 101.05 1167.75 99.38 1164.47 97.02 1162.82 93.76 1162.82 89.61 1162.82 85.69 1164.29 82.57 1167.23 80.23 1170.17 77.9 1173.97 76.73 1178.64 76.73 1183.31 76.73 1187.43 78.03 1190.48 80.62 1192.73 77.16 1195.93 75.43 1200.07 75.43L1200.07 81.65C1197.3 81.65 1194.88 82.17 1192.81 83.21 1194.02 85.17 1194.62 87.3 1194.62 89.61ZM1166.13 119.52C1166.13 124.07 1170.08 126.35 1177.97 126.35 1187.88 126.35 1192.84 123.84 1192.84 118.83 1192.84 115.72 1190.42 114.16 1185.58 114.16L1173.39 114.16C1168.55 114.16 1166.13 115.95 1166.13 119.52ZM1187.39 89.7C1187.39 87.05 1186.63 85 1185.1 83.56 1183.57 82.12 1181.46 81.4 1178.75 81.4 1176.04 81.4 1174.01 82.12 1172.48 83.56 1170.95 85 1170.19 87.05 1170.19 89.7 1170.19 92.35 1170.95 94.3 1172.48 95.71 1174.01 97.12 1176.1 97.83 1178.75 97.83 1181.4 97.83 1183.58 97.12 1185.1 95.71 1186.63 94.3 1187.39 92.3 1187.39 89.7Z" stroke="none" stroke-width="0" stroke-linecap="butt" stroke-linejoin="miter" stroke-miterlimit="4" fill="#FFFFFF" fill-opacity="1"/><path d="M1235.36 102.15 1241.32 102.84C1240.34 107.16 1238.32 110.53 1235.27 112.95 1232.21 115.37 1228.35 116.58 1223.69 116.58 1217.99 116.58 1213.32 114.81 1209.69 111.26 1206.06 107.71 1204.24 103.04 1204.24 97.22 1204.24 91.4 1206.06 86.39 1209.69 82.53 1213.32 78.67 1217.87 76.74 1223.35 76.74 1229.11 76.74 1233.58 78.53 1236.75 82.1 1239.92 85.67 1241.5 90.17 1241.5 95.58L1241.5 98.43 1211.42 98.43C1211.59 102.06 1212.85 105.06 1215.18 107.42 1217.51 109.78 1220.38 110.96 1223.78 110.96 1229.95 110.96 1233.81 108.02 1235.36 102.14ZM1211.59 93.77 1234.15 93.77C1234.03 90.49 1233.05 87.73 1231.21 85.52 1229.37 83.3 1226.74 82.19 1223.34 82.19 1219.94 82.19 1217.39 83.3 1215.34 85.52 1213.29 87.74 1212.04 90.49 1211.58 93.77Z" stroke="none" stroke-width="0" stroke-linecap="butt" stroke-linejoin="miter" stroke-miterlimit="4" fill="#FFFFFF" fill-opacity="1"/><path d="M1252.38 106.74 1252.38 82.97 1246.67 82.97 1246.67 79.08 1249.09 78.65C1250.76 78.3 1251.93 77.7 1252.59 76.84 1253.25 75.98 1253.81 74.56 1254.28 72.6L1255.4 67.33 1259.46 67.33 1259.46 77.79 1270.09 77.79 1270.09 82.98 1259.46 82.98 1259.46 105.88C1259.46 109.17 1261.02 110.81 1264.13 110.81 1266.2 110.81 1268.57 110.06 1271.22 108.56L1271.22 113.4C1268.4 115.53 1265.17 116.6 1261.54 116.6 1255.43 116.6 1252.38 113.32 1252.38 106.75Z" stroke="none" stroke-width="0" stroke-linecap="butt" stroke-linejoin="miter" stroke-miterlimit="4" fill="#FFFFFF" fill-opacity="1"/><path d="M1286.87 93.86 1286.87 115.55 1279.7 115.55 1279.7 61.1 1286.87 61.1 1286.87 84.52C1287.79 82.22 1289.41 80.34 1291.71 78.9 1294.01 77.46 1296.58 76.74 1299.4 76.74 1304.12 76.74 1307.61 78.14 1309.86 80.93 1312.11 83.72 1313.23 87.46 1313.23 92.12L1313.23 115.54 1306.06 115.54 1306.06 92.72C1306.06 89.49 1305.3 86.97 1303.77 85.16 1302.24 83.34 1300.01 82.44 1297.07 82.44 1294.13 82.44 1291.77 83.49 1289.81 85.59 1287.85 87.69 1286.87 90.45 1286.87 93.84Z" stroke="none" stroke-width="0" stroke-linecap="butt" stroke-linejoin="miter" stroke-miterlimit="4" fill="#FFFFFF" fill-opacity="1"/><path d="M1353.42 102.15 1359.38 102.84C1358.4 107.16 1356.38 110.53 1353.33 112.95 1350.28 115.37 1346.42 116.58 1341.75 116.58 1336.05 116.58 1331.38 114.81 1327.75 111.26 1324.12 107.72 1322.3 103.04 1322.3 97.22 1322.3 91.4 1324.11 86.39 1327.75 82.53 1331.38 78.67 1335.93 76.74 1341.41 76.74 1347.17 76.74 1351.64 78.53 1354.81 82.1 1357.98 85.67 1359.56 90.17 1359.56 95.58L1359.56 98.43 1329.48 98.43C1329.65 102.06 1330.91 105.06 1333.24 107.42 1335.57 109.78 1338.44 110.96 1341.84 110.96 1348.01 110.96 1351.87 108.02 1353.42 102.14ZM1329.65 93.77 1352.21 93.77C1352.09 90.49 1351.11 87.73 1349.27 85.52 1347.43 83.3 1344.8 82.19 1341.4 82.19 1338 82.19 1335.45 83.3 1333.41 85.52 1331.36 87.74 1330.11 90.49 1329.65 93.77Z" stroke="none" stroke-width="0" stroke-linecap="butt" stroke-linejoin="miter" stroke-miterlimit="4" fill="#FFFFFF" fill-opacity="1"/><path d="M1392.4 78.47 1391.71 84.95C1389.81 83.91 1387.85 83.39 1385.83 83.39 1383.06 83.39 1380.79 84.53 1379 86.8 1377.21 89.08 1376.32 92 1376.32 95.57L1376.32 115.54 1369.15 115.54 1369.15 77.77 1376.32 77.77 1376.32 85.46C1377.07 83.1 1378.41 81.05 1380.34 79.32 1382.27 77.59 1384.5 76.73 1387.04 76.73 1389.29 76.73 1391.07 77.31 1392.4 78.46Z" stroke="none" stroke-width="0" stroke-linecap="butt" stroke-linejoin="miter" stroke-miterlimit="4" fill="#FFFFFF" fill-opacity="1"/></g></svg>