<?xml version="1.0" encoding="UTF-8"?>
<svg id="Layer_2" data-name="Layer 2" xmlns="http://www.w3.org/2000/svg" viewBox="0 0 200.1 50.04">
  <defs>
    <style>
      .cls-1, .cls-2, .cls-3 {
        stroke-width: 0px;
      }

      .cls-2 {
        fill: none;
      }

      .cls-3 {
        fill: #4ed869;
      }
      .cls-1 { fill: #ffffff; }
    </style>
  </defs>
  <g id="OUTLINE">
    <rect class="cls-2" width="200.1" height="50.04"/>
    <g>
      <path class="cls-3" d="M39.73,14.05h-14.89c-6.18,0-9.61,4.31-9.61,10.98s3.62,11.42,10.42,11.42c3.43,0,6.8-1.44,8.36-4.56h-8.67v-7.61h18.69v20.41h-8.41v-4.37c-2.18,3.62-7.16,5.12-12.22,5.12-10.86,0-19.1-8.24-19.1-20.41S13.23,4.62,24.59,4.62h19.46l-4.33,9.42Z"/>
      <polygon class="cls-3" points="111.38 14.05 115.64 4.62 83.15 4.62 78.82 14.05 91.99 14.05 91.99 44.69 102.54 44.69 102.54 14.05 111.38 14.05"/>
      <polygon class="cls-3" points="75.55 14.05 79.88 4.62 47.31 4.62 42.98 14.05 56.16 14.05 56.16 44.69 66.7 44.69 66.7 14.05 75.55 14.05"/>
    </g>
    <g>
      <path class="cls-1" d="M121.98,9.93c0-3.08,2.13-5.19,4.89-5.19s4.46,1.57,4.63,4.13l-1.32.08c-.11-1.83-1.29-3.03-3.3-3.03s-3.49,1.56-3.49,4.03,1.46,4.01,3.62,4.01c1.87,0,3.08-1.17,3.25-2.89h-3.05v-1.08h4.3v4.94h-1.25v-1.78c-.44,1.27-1.86,1.97-3.41,1.97-2.82,0-4.87-2.08-4.87-5.19Z"/>
      <path class="cls-1" d="M137.49,9.31c-.38-.21-.65-.29-1.08-.29-1,0-1.75.9-1.75,2.24v3.67h-1.32v-6.93h1.32v1.41c.25-.79.97-1.6,1.97-1.6.43,0,.75.11.98.32l-.13,1.19Z"/>
      <path class="cls-1" d="M144.99,12.59c-.35,1.57-1.51,2.52-3.24,2.52-2.06,0-3.57-1.4-3.57-3.55s1.51-3.76,3.51-3.76c2.21,0,3.33,1.57,3.33,3.46v.52h-5.52c.06,1.35,1.03,2.3,2.27,2.3,1.16,0,1.84-.56,2.13-1.62l1.1.13ZM143.67,10.93c-.05-1.11-.67-2.13-1.98-2.13s-2,.98-2.16,2.13h4.14Z"/>
      <path class="cls-1" d="M152.21,13.56c0,.36.21.54.54.54.16,0,.41-.05.6-.16v.71c-.24.24-.52.41-1.06.41-.71,0-1.22-.54-1.3-1.36-.38.81-1.36,1.41-2.49,1.41-1.35,0-2.22-.73-2.22-1.92,0-1.32,1.13-1.86,2.79-2.19l1.87-.38v-.27c0-.95-.56-1.54-1.52-1.54s-1.54.59-1.75,1.4l-1.17-.16c.27-1.3,1.3-2.25,2.94-2.25,1.75,0,2.78.89,2.78,2.65v3.11ZM150.94,11.5l-1.55.33c-1.1.24-1.79.44-1.79,1.29,0,.59.4,1.03,1.19,1.03,1.22,0,2.16-.92,2.16-2.32v-.33Z"/>
      <path class="cls-1" d="M154.78,8.94h-1.05v-.71l.44-.08c.65-.13.79-.44.95-1.11l.21-.97h.75v1.92h1.95v.95h-1.95v4.21c0,.62.25.9.86.9.44,0,.9-.19,1.3-.41v.89c-.51.38-1.02.59-1.78.59-.98,0-1.68-.46-1.68-1.81v-4.36Z"/>
      <path class="cls-1" d="M165.94,12.59c-.35,1.57-1.51,2.52-3.24,2.52-2.06,0-3.57-1.4-3.57-3.55s1.51-3.76,3.51-3.76c2.21,0,3.33,1.57,3.33,3.46v.52h-5.52c.06,1.35,1.03,2.3,2.27,2.3,1.16,0,1.84-.56,2.13-1.62l1.1.13ZM164.62,10.93c-.05-1.11-.67-2.13-1.98-2.13s-2,.98-2.16,2.13h4.14Z"/>
      <path class="cls-1" d="M171.71,9.31c-.38-.21-.65-.29-1.08-.29-1,0-1.75.9-1.75,2.24v3.67h-1.32v-6.93h1.32v1.41c.25-.79.97-1.6,1.97-1.6.43,0,.75.11.98.32l-.13,1.19Z"/>
      <path class="cls-1" d="M125.44,29.7v-8.86h-3.63v-1.14h8.7v1.14h-3.7v8.86h-1.36Z"/>
      <path class="cls-1" d="M136.95,27.36c-.35,1.57-1.51,2.52-3.24,2.52-2.06,0-3.57-1.4-3.57-3.55s1.51-3.76,3.51-3.76c2.21,0,3.33,1.57,3.33,3.46v.52h-5.52c.06,1.35,1.03,2.3,2.27,2.3,1.16,0,1.84-.56,2.13-1.62l1.1.13ZM135.63,25.7c-.05-1.11-.67-2.13-1.98-2.13s-2,.98-2.16,2.13h4.14Z"/>
      <path class="cls-1" d="M141.74,22.57c2.03,0,3.13,1.36,3.27,3.03l-1.16.08c-.11-1.22-.84-2.05-2.13-2.05s-2.19,1-2.19,2.6.89,2.6,2.19,2.6,2.02-.87,2.13-2.09l1.16.11c-.14,1.68-1.24,3.03-3.27,3.03s-3.56-1.44-3.56-3.65,1.46-3.67,3.56-3.67Z"/>
      <path class="cls-1" d="M147.91,29.7h-1.32v-10h1.32v4.3c.33-.84,1.27-1.43,2.3-1.43,1.81,0,2.54,1.21,2.54,2.82v4.3h-1.32v-4.19c0-1.16-.56-1.89-1.65-1.89s-1.87.83-1.87,2.09v3.98Z"/>
      <path class="cls-1" d="M156.02,29.7h-1.32v-6.93h1.32v1.24c.33-.84,1.27-1.43,2.3-1.43,1.81,0,2.54,1.21,2.54,2.82v4.3h-1.32v-4.19c0-1.16-.56-1.89-1.65-1.89s-1.87.83-1.87,2.09v3.98Z"/>
      <path class="cls-1" d="M165.89,29.89c-2.03,0-3.52-1.49-3.52-3.65s1.49-3.67,3.52-3.67,3.55,1.51,3.55,3.67-1.51,3.65-3.55,3.65ZM165.89,28.87c1.41,0,2.21-1.1,2.21-2.63s-.79-2.63-2.21-2.63-2.17,1.08-2.17,2.63.78,2.63,2.17,2.63Z"/>
      <path class="cls-1" d="M172.23,19.7v10h-1.32v-10h1.32Z"/>
      <path class="cls-1" d="M177.22,29.89c-2.03,0-3.52-1.49-3.52-3.65s1.49-3.67,3.52-3.67,3.55,1.51,3.55,3.67-1.51,3.65-3.55,3.65ZM177.22,28.87c1.41,0,2.21-1.1,2.21-2.63s-.79-2.63-2.21-2.63-2.17,1.08-2.17,2.63.78,2.63,2.17,2.63Z"/>
      <path class="cls-1" d="M184.98,27.28c-.57,0-1.09-.1-1.52-.29-.24.14-.46.37-.46.68,0,.38.24.6.84.6h2.71c1.51,0,2.3.79,2.3,1.87,0,1.73-1.94,2.4-4,2.4-1.87,0-3.43-.59-3.43-1.87,0-.79.57-1.3,1.43-1.46-.63-.21-.92-.67-.92-1.19,0-.6.43-1.03,1.05-1.3-.57-.41-.9-1.03-.9-1.79,0-1.46,1.21-2.36,2.9-2.36.87,0,1.65.27,2.17.71.36-.56,1.02-.95,1.76-.95v1.14c-.46,0-.98.11-1.33.29.21.33.33.73.33,1.17,0,1.44-1.22,2.35-2.94,2.35ZM184.85,31.68c1.59,0,2.73-.38,2.73-1.38,0-.63-.52-.86-1.33-.86h-2.24c-.71,0-1.33.24-1.33.98,0,.87.89,1.25,2.17,1.25ZM184.99,23.43c-.97,0-1.57.54-1.57,1.52s.6,1.49,1.57,1.49,1.59-.54,1.59-1.49-.6-1.52-1.59-1.52Z"/>
      <path class="cls-1" d="M191.05,32.36l1.13-2.68-2.92-6.92h1.38l2.21,5.33h.06l2.13-5.33h1.3l-4,9.6h-1.29Z"/>
      <path class="cls-1" d="M125.44,44.46v-8.86h-3.63v-1.14h8.7v1.14h-3.7v8.86h-1.36Z"/>
      <path class="cls-1" d="M133.52,44.65c-2.03,0-3.52-1.49-3.52-3.65s1.49-3.67,3.52-3.67,3.55,1.51,3.55,3.67-1.51,3.65-3.55,3.65ZM133.52,43.64c1.41,0,2.21-1.1,2.21-2.63s-.79-2.63-2.21-2.63-2.17,1.08-2.17,2.63.78,2.63,2.17,2.63Z"/>
      <path class="cls-1" d="M141.45,42.05c-.57,0-1.09-.1-1.52-.29-.24.14-.46.37-.46.68,0,.38.24.6.84.6h2.71c1.51,0,2.3.79,2.3,1.87,0,1.73-1.94,2.4-4,2.4-1.87,0-3.43-.59-3.43-1.87,0-.79.57-1.3,1.43-1.46-.63-.21-.92-.67-.92-1.19,0-.6.43-1.03,1.05-1.3-.57-.41-.9-1.03-.9-1.79,0-1.46,1.21-2.36,2.9-2.36.87,0,1.65.27,2.17.71.36-.56,1.02-.95,1.76-.95v1.14c-.46,0-.98.11-1.33.29.21.33.33.73.33,1.17,0,1.44-1.22,2.35-2.94,2.35ZM141.32,46.45c1.59,0,2.73-.38,2.73-1.38,0-.63-.52-.86-1.33-.86h-2.24c-.71,0-1.33.24-1.33.98,0,.87.89,1.25,2.17,1.25ZM141.47,38.19c-.97,0-1.57.54-1.57,1.52s.6,1.49,1.57,1.49,1.59-.54,1.59-1.49-.6-1.52-1.59-1.52Z"/>
      <path class="cls-1" d="M152.8,42.13c-.35,1.57-1.51,2.52-3.24,2.52-2.06,0-3.57-1.4-3.57-3.55s1.51-3.76,3.51-3.76c2.21,0,3.33,1.57,3.33,3.46v.52h-5.52c.06,1.35,1.03,2.3,2.27,2.3,1.16,0,1.84-.56,2.13-1.62l1.1.13ZM151.48,40.46c-.05-1.11-.67-2.13-1.98-2.13s-2,.98-2.16,2.13h4.14Z"/>
      <path class="cls-1" d="M154.67,38.48h-1.05v-.71l.44-.08c.65-.13.79-.44.95-1.11l.21-.97h.75v1.92h1.95v.95h-1.95v4.21c0,.62.25.9.86.9.44,0,.9-.19,1.3-.41v.89c-.51.38-1.02.59-1.78.59-.98,0-1.68-.46-1.68-1.81v-4.36Z"/>
      <path class="cls-1" d="M160.84,44.46h-1.32v-10h1.32v4.3c.33-.84,1.27-1.43,2.3-1.43,1.81,0,2.54,1.21,2.54,2.82v4.3h-1.32v-4.19c0-1.16-.56-1.89-1.65-1.89s-1.87.83-1.87,2.09v3.98Z"/>
      <path class="cls-1" d="M174,42.13c-.35,1.57-1.51,2.52-3.24,2.52-2.06,0-3.57-1.4-3.57-3.55s1.51-3.76,3.51-3.76c2.21,0,3.33,1.57,3.33,3.46v.52h-5.52c.06,1.35,1.03,2.3,2.27,2.3,1.16,0,1.84-.56,2.13-1.62l1.1.13ZM172.68,40.46c-.05-1.11-.67-2.13-1.98-2.13s-2,.98-2.16,2.13h4.14Z"/>
      <path class="cls-1" d="M179.77,38.85c-.38-.21-.65-.29-1.08-.29-1,0-1.75.9-1.75,2.24v3.67h-1.32v-6.93h1.32v1.41c.25-.79.97-1.6,1.97-1.6.43,0,.75.11.98.32l-.13,1.19Z"/>
    </g>
  </g>
</svg>
